<svg version="1.1" xmlns="http://www.w3.org/2000/svg" viewBox="0 0 2634.158512563441 2185.296032203727" width="2634.158512563441" height="2185.296032203727" filter="invert(93%) hue-rotate(180deg)">
  <!-- svg-source:excalidraw -->
  
  <defs>
    <style class="style-fonts">
      @font-face {
        font-family: "Virgil";
        src: url("https://excalidraw.com/Virgil.woff2");
      }
      @font-face {
        font-family: "Cascadia";
        src: url("https://excalidraw.com/Cascadia.woff2");
      }
    </style>
    
  </defs>
  <rect x="0" y="0" width="2634.158512563441" height="2185.296032203727" fill="#ffffff"></rect><g transform="translate(2031.0337624072454 615.9394348145856) rotate(0 266.5260925292969 22.5)"><text x="0" y="0" font-family="Virgil, Segoe UI Emoji" font-size="36px" fill="#000000" text-anchor="start" style="white-space: pre;" direction="ltr" dominant-baseline="text-before-edge">Diagrama de Entidad Relación</text></g><g stroke-linecap="round" transform="translate(121.16960889617258 104.50215552388977) rotate(0 189.5 262.5)"><path d="M32 0 M32 0 C103.46 -0.96, 174.45 1.82, 347 0 M32 0 C123.79 -1.03, 214.25 -1.3, 347 0 M347 0 C367.96 1.27, 377.71 9.72, 379 32 M347 0 C367.49 0.75, 379.82 10.92, 379 32 M379 32 C379.53 181.93, 378.98 332.29, 379 493 M379 32 C378.94 213.27, 378.19 395.1, 379 493 M379 493 C379.08 515.32, 369.56 526.92, 347 525 M379 493 C380.15 514.93, 369 524.37, 347 525 M347 525 C266.73 524.36, 187.35 524.86, 32 525 M347 525 C284.34 526.43, 220.79 525.75, 32 525 M32 525 C9.76 523.53, 1.03 515.61, 0 493 M32 525 C11.33 524.75, 2.27 515.42, 0 493 M0 493 C-0.27 322.79, -0.18 154.09, 0 32 M0 493 C1.54 376.36, 1.48 259.26, 0 32 M0 32 C0.01 12.48, 10.49 0.69, 32 0 M0 32 C-1.73 10.95, 9.12 1.48, 32 0" stroke="#000000" stroke-width="1" fill="none"></path></g><g transform="translate(156.78754407683664 109.50215552388977) rotate(0 153.88206481933594 225)"><text x="153.88206481933594" y="0" font-family="Virgil, Segoe UI Emoji" font-size="36px" fill="#000000" text-anchor="middle" style="white-space: pre;" direction="ltr" dominant-baseline="text-before-edge">User</text><text x="153.88206481933594" y="45" font-family="Virgil, Segoe UI Emoji" font-size="36px" fill="#000000" text-anchor="middle" style="white-space: pre;" direction="ltr" dominant-baseline="text-before-edge"></text><text x="153.88206481933594" y="90" font-family="Virgil, Segoe UI Emoji" font-size="36px" fill="#000000" text-anchor="middle" style="white-space: pre;" direction="ltr" dominant-baseline="text-before-edge">id: Long</text><text x="153.88206481933594" y="135" font-family="Virgil, Segoe UI Emoji" font-size="36px" fill="#000000" text-anchor="middle" style="white-space: pre;" direction="ltr" dominant-baseline="text-before-edge">username: String</text><text x="153.88206481933594" y="180" font-family="Virgil, Segoe UI Emoji" font-size="36px" fill="#000000" text-anchor="middle" style="white-space: pre;" direction="ltr" dominant-baseline="text-before-edge">password: String</text><text x="153.88206481933594" y="225" font-family="Virgil, Segoe UI Emoji" font-size="36px" fill="#000000" text-anchor="middle" style="white-space: pre;" direction="ltr" dominant-baseline="text-before-edge">email: String</text><text x="153.88206481933594" y="270" font-family="Virgil, Segoe UI Emoji" font-size="36px" fill="#000000" text-anchor="middle" style="white-space: pre;" direction="ltr" dominant-baseline="text-before-edge">type: String</text><text x="153.88206481933594" y="315" font-family="Virgil, Segoe UI Emoji" font-size="36px" fill="#000000" text-anchor="middle" style="white-space: pre;" direction="ltr" dominant-baseline="text-before-edge">active: boolean</text><text x="153.88206481933594" y="360" font-family="Virgil, Segoe UI Emoji" font-size="36px" fill="#000000" text-anchor="middle" style="white-space: pre;" direction="ltr" dominant-baseline="text-before-edge">activationToken: </text><text x="153.88206481933594" y="405" font-family="Virgil, Segoe UI Emoji" font-size="36px" fill="#000000" text-anchor="middle" style="white-space: pre;" direction="ltr" dominant-baseline="text-before-edge">String</text></g><g stroke-linecap="round" transform="translate(726.3014863030148 209.32710881620096) rotate(0 189.5 168)"><path d="M32 0 M32 0 C109.12 1.6, 184.02 1.88, 347 0 M32 0 C153.32 -1.35, 275.7 -1.28, 347 0 M347 0 C368.03 0.99, 380.75 11.3, 379 32 M347 0 C368.44 0.31, 377.18 9.79, 379 32 M379 32 C382.65 125.3, 380.57 220.39, 379 304 M379 32 C381.25 124.01, 380.79 215.41, 379 304 M379 304 C378.15 327, 369.53 337.42, 347 336 M379 304 C377.62 326.62, 366.88 336.27, 347 336 M347 336 C232.43 338.77, 116.57 337.69, 32 336 M347 336 C229.17 336.24, 111.64 336.96, 32 336 M32 336 C9.27 337.31, 1.86 326.67, 0 304 M32 336 C8.81 337.4, -0.32 327.47, 0 304 M0 304 C0.78 247.92, 0.36 193.34, 0 32 M0 304 C0.95 203.98, 1.95 104.28, 0 32 M0 32 C0.41 10.6, 10.48 -1.89, 32 0 M0 32 C1.39 11.19, 11.34 0.71, 32 0" stroke="#000000" stroke-width="1" fill="none"></path></g><g transform="translate(760.2814209953976 214.32710881620096) rotate(0 155.5200653076172 135)"><text x="155.5200653076172" y="0" font-family="Virgil, Segoe UI Emoji" font-size="36px" fill="#000000" text-anchor="middle" style="white-space: pre;" direction="ltr" dominant-baseline="text-before-edge">Role</text><text x="155.5200653076172" y="45" font-family="Virgil, Segoe UI Emoji" font-size="36px" fill="#000000" text-anchor="middle" style="white-space: pre;" direction="ltr" dominant-baseline="text-before-edge"></text><text x="155.5200653076172" y="90" font-family="Virgil, Segoe UI Emoji" font-size="36px" fill="#000000" text-anchor="middle" style="white-space: pre;" direction="ltr" dominant-baseline="text-before-edge">id: Long</text><text x="155.5200653076172" y="135" font-family="Virgil, Segoe UI Emoji" font-size="36px" fill="#000000" text-anchor="middle" style="white-space: pre;" direction="ltr" dominant-baseline="text-before-edge">name: String</text><text x="155.5200653076172" y="180" font-family="Virgil, Segoe UI Emoji" font-size="36px" fill="#000000" text-anchor="middle" style="white-space: pre;" direction="ltr" dominant-baseline="text-before-edge">description: String</text><text x="155.5200653076172" y="225" font-family="Virgil, Segoe UI Emoji" font-size="36px" fill="#000000" text-anchor="middle" style="white-space: pre;" direction="ltr" dominant-baseline="text-before-edge">active: boolean</text></g><g mask="url(#mask-y9ycfect1J4xbhXcaw-Fp)" stroke-linecap="round"><g transform="translate(517.6929885224199 363.6007342809312) rotate(0 97.85391884729506 -0.573055551718312)"><path d="M-0.09 0.01 C32.42 0.25, 162.36 0.55, 195.19 0.42 M-1.6 -1.02 C31.26 -1.09, 164.31 -1.74, 197.31 -1.57" stroke="#000000" stroke-width="1" fill="none"></path></g><g transform="translate(517.6929885224199 363.6007342809312) rotate(0 97.85391884729506 -0.573055551718312)"><path d="M28.15 -12.05 C19.77 -6.13, 9 -5.56, 0.04 -0.17 M27.33 -9.43 C20.55 -8.38, 14.24 -5.54, 0.41 -0.08" stroke="#000000" stroke-width="1" fill="none"></path></g><g transform="translate(517.6929885224199 363.6007342809312) rotate(0 97.85391884729506 -0.573055551718312)"><path d="M28.09 8.47 C19.9 8.06, 9.15 2.29, 0.04 -0.17 M27.27 11.09 C20.58 6.75, 14.29 4.19, 0.41 -0.08" stroke="#000000" stroke-width="1" fill="none"></path></g><g transform="translate(517.6929885224199 363.6007342809312) rotate(0 97.85391884729506 -0.573055551718312)"><path d="M169.15 6.82 C178.35 6.47, 185 0.72, 197.44 -1.76 M168.32 9.45 C176.45 5.54, 184.97 3, 197.81 -1.66" stroke="#000000" stroke-width="1" fill="none"></path></g><g transform="translate(517.6929885224199 363.6007342809312) rotate(0 97.85391884729506 -0.573055551718312)"><path d="M169.13 -13.7 C178.17 -7.71, 184.83 -7.12, 197.44 -1.76 M168.31 -11.07 C176.36 -9.59, 184.89 -6.73, 197.81 -1.66" stroke="#000000" stroke-width="1" fill="none"></path></g></g><mask id="mask-y9ycfect1J4xbhXcaw-Fp"><rect x="0" y="0" fill="#fff" width="814.0136000096791" height="463.75287023561464"></rect><rect x="591.69728077728" y="341.1768022582728" fill="#000" width="48.31202697753906" height="45" opacity="1"></rect></mask><g transform="translate(591.69728077728 341.1768022582728) rotate(0 23.849626592435015 21.85087647094008)"><text x="24.15601348876953" y="0" font-family="Virgil, Segoe UI Emoji" font-size="36px" fill="#000000" text-anchor="middle" style="white-space: pre;" direction="ltr" dominant-baseline="text-before-edge">n:m</text></g><g stroke-linecap="round" transform="translate(1387.380747078023 196.05406360058714) rotate(0 189.5 168)"><path d="M32 0 M32 0 C137.09 2.23, 245.71 0.86, 347 0 M32 0 C123.52 -0.51, 216.29 -0.58, 347 0 M347 0 C366.39 1.35, 377.65 10.98, 379 32 M347 0 C370.47 -1.02, 378.83 8.39, 379 32 M379 32 C382.26 100.3, 381.39 170.28, 379 304 M379 32 C380.71 118.13, 380.83 206.08, 379 304 M379 304 C378.21 325.47, 368.91 334.44, 347 336 M379 304 C378.56 325.47, 369.51 335.14, 347 336 M347 336 C257.54 334.19, 167.2 334.67, 32 336 M347 336 C244.51 334.8, 140.53 334.7, 32 336 M32 336 C10.38 335.1, 0.87 324.3, 0 304 M32 336 C9.36 335.74, 0.21 326.54, 0 304 M0 304 C0.97 229.76, 0.22 155.13, 0 32 M0 304 C0.91 199.31, 1.59 93.32, 0 32 M0 32 C-1.99 12.34, 11.77 0.24, 32 0 M0 32 C0.81 12.82, 11.16 1.47, 32 0" stroke="#000000" stroke-width="1" fill="none"></path></g><g transform="translate(1421.3606817704058 201.05406360058714) rotate(0 155.5200653076172 112.5)"><text x="155.5200653076172" y="0" font-family="Virgil, Segoe UI Emoji" font-size="36px" fill="#000000" text-anchor="middle" style="white-space: pre;" direction="ltr" dominant-baseline="text-before-edge">Permisos</text><text x="155.5200653076172" y="45" font-family="Virgil, Segoe UI Emoji" font-size="36px" fill="#000000" text-anchor="middle" style="white-space: pre;" direction="ltr" dominant-baseline="text-before-edge">id: Long</text><text x="155.5200653076172" y="90" font-family="Virgil, Segoe UI Emoji" font-size="36px" fill="#000000" text-anchor="middle" style="white-space: pre;" direction="ltr" dominant-baseline="text-before-edge">name: String</text><text x="155.5200653076172" y="135" font-family="Virgil, Segoe UI Emoji" font-size="36px" fill="#000000" text-anchor="middle" style="white-space: pre;" direction="ltr" dominant-baseline="text-before-edge">description: String</text><text x="155.5200653076172" y="180" font-family="Virgil, Segoe UI Emoji" font-size="36px" fill="#000000" text-anchor="middle" style="white-space: pre;" direction="ltr" dominant-baseline="text-before-edge">active: boolean</text></g><g mask="url(#mask-ZHALMmmXxfgmMOsZv4AyU)" stroke-linecap="round"><g transform="translate(1127.0193159919327 363.5092593226964) rotate(0 123.62219597353032 0.20591582268446018)"><path d="M1.08 -0.87 C42.1 -0.54, 206.27 0.81, 247.06 1.15 M0.19 1.28 C40.98 1.32, 204.86 -0.4, 246.17 -0.78" stroke="#000000" stroke-width="1" fill="none"></path></g><g transform="translate(1127.0193159919327 363.5092593226964) rotate(0 123.62219597353032 0.20591582268446018)"><path d="M27.9 -10.71 C19.27 -8.8, 8.65 -1.99, 3.05 0.25 M28.77 -10.36 C22.34 -7.86, 15.79 -5.2, 0.42 -0.61" stroke="#000000" stroke-width="1" fill="none"></path></g><g transform="translate(1127.0193159919327 363.5092593226964) rotate(0 123.62219597353032 0.20591582268446018)"><path d="M27.73 9.81 C19.31 4, 8.76 3.09, 3.05 0.25 M28.6 10.16 C22.22 7.89, 15.72 5.78, 0.42 -0.61" stroke="#000000" stroke-width="1" fill="none"></path></g><g transform="translate(1127.0193159919327 363.5092593226964) rotate(0 123.62219597353032 0.20591582268446018)"><path d="M216.63 9.95 C229.35 3.61, 239.94 2.69, 248.14 0.35 M217.5 10.3 C224.18 7.82, 230.74 5.71, 245.51 -0.52" stroke="#000000" stroke-width="1" fill="none"></path></g><g transform="translate(1127.0193159919327 363.5092593226964) rotate(0 123.62219597353032 0.20591582268446018)"><path d="M216.43 -10.57 C229.08 -9.19, 239.75 -2.39, 248.14 0.35 M217.3 -10.22 C224.02 -7.93, 230.62 -5.27, 245.51 -0.52" stroke="#000000" stroke-width="1" fill="none"></path></g></g><mask id="mask-ZHALMmmXxfgmMOsZv4AyU"><rect x="0" y="0" fill="#fff" width="1473.9611589954802" height="464.27891862933166"></rect><rect x="1226.3342240049387" y="341.394088976014" fill="#000" width="48.31202697753906" height="45" opacity="1"></rect></mask><g transform="translate(1226.3342240049387 341.394088976014) rotate(0 24.307287960524263 22.321086169366822)"><text x="24.15601348876953" y="0" font-family="Virgil, Segoe UI Emoji" font-size="36px" fill="#000000" text-anchor="middle" style="white-space: pre;" direction="ltr" dominant-baseline="text-before-edge">n:m</text></g><g stroke-linecap="round" transform="translate(694.4024956300746 1214.5167771413762) rotate(0 189.5 123.5)"><path d="M32 0 M32 0 C97.78 2.99, 162.09 1.87, 347 0 M32 0 C120.88 0.14, 208.83 1.06, 347 0 M347 0 C369.63 1.48, 379.19 9, 379 32 M347 0 C366.91 -0.44, 379.72 9.42, 379 32 M379 32 C378.88 102.16, 378.88 173.3, 379 215 M379 32 C380.06 87.77, 380.61 143.6, 379 215 M379 215 C380.63 235.71, 366.57 248.48, 347 247 M379 215 C377.63 237.76, 368.51 247.38, 347 247 M347 247 C231.07 246.07, 116.29 245.18, 32 247 M347 247 C269.52 246.28, 191.02 246.37, 32 247 M32 247 C11.26 247.31, -0.74 237.87, 0 215 M32 247 C10.47 245.95, -0.44 236.82, 0 215 M0 215 C1.1 178.38, 0.95 141.42, 0 32 M0 215 C0.31 147.13, 0 80.22, 0 32 M0 32 C-0.83 9.53, 9.2 -0.21, 32 0 M0 32 C2.12 12.67, 10.9 1.88, 32 0" stroke="#000000" stroke-width="1" fill="none"></path></g><g transform="translate(750.6304466798792 1219.5167771413762) rotate(0 133.2720489501953 90)"><text x="133.2720489501953" y="0" font-family="Virgil, Segoe UI Emoji" font-size="36px" fill="#000000" text-anchor="middle" style="white-space: pre;" direction="ltr" dominant-baseline="text-before-edge">Temario</text><text x="133.2720489501953" y="45" font-family="Virgil, Segoe UI Emoji" font-size="36px" fill="#000000" text-anchor="middle" style="white-space: pre;" direction="ltr" dominant-baseline="text-before-edge">id: Long</text><text x="133.2720489501953" y="90" font-family="Virgil, Segoe UI Emoji" font-size="36px" fill="#000000" text-anchor="middle" style="white-space: pre;" direction="ltr" dominant-baseline="text-before-edge">title: String</text><text x="133.2720489501953" y="135" font-family="Virgil, Segoe UI Emoji" font-size="36px" fill="#000000" text-anchor="middle" style="white-space: pre;" direction="ltr" dominant-baseline="text-before-edge">duration: Float</text></g><g stroke-linecap="round" transform="translate(86.23568914106727 1204.0753576143184) rotate(0 189.5 133.5)"><path d="M32 0 M32 0 C146 -1.64, 258.7 -1.25, 347 0 M32 0 C154.9 1.19, 277.6 0.87, 347 0 M347 0 C369.19 1.43, 378.88 11.21, 379 32 M347 0 C368.1 -0.07, 378.62 12.42, 379 32 M379 32 C382.06 79.38, 378.84 124.78, 379 235 M379 32 C376.69 73.46, 377.75 114.17, 379 235 M379 235 C377.42 256.3, 366.5 268.4, 347 267 M379 235 C380.46 256.92, 367.28 268.31, 347 267 M347 267 C283.01 265.05, 217.4 265.68, 32 267 M347 267 C255.52 266.32, 164.04 265.67, 32 267 M32 267 C11.19 267.15, 0.84 257.94, 0 235 M32 267 C11.25 267.05, -1.35 256.96, 0 235 M0 235 C-0.41 180.13, 0.36 126.12, 0 32 M0 235 C-0.32 164.55, 0.17 93.34, 0 32 M0 32 C1.12 10.39, 9.97 -0.01, 32 0 M0 32 C1.02 11.63, 9.32 2.25, 32 0" stroke="#000000" stroke-width="1" fill="none"></path></g><g transform="translate(120.21562383345008 1209.0753576143184) rotate(0 155.5200653076172 112.5)"><text x="155.5200653076172" y="0" font-family="Virgil, Segoe UI Emoji" font-size="36px" fill="#000000" text-anchor="middle" style="white-space: pre;" direction="ltr" dominant-baseline="text-before-edge">Tag</text><text x="155.5200653076172" y="45" font-family="Virgil, Segoe UI Emoji" font-size="36px" fill="#000000" text-anchor="middle" style="white-space: pre;" direction="ltr" dominant-baseline="text-before-edge">id: Long</text><text x="155.5200653076172" y="90" font-family="Virgil, Segoe UI Emoji" font-size="36px" fill="#000000" text-anchor="middle" style="white-space: pre;" direction="ltr" dominant-baseline="text-before-edge">name: String</text><text x="155.5200653076172" y="135" font-family="Virgil, Segoe UI Emoji" font-size="36px" fill="#000000" text-anchor="middle" style="white-space: pre;" direction="ltr" dominant-baseline="text-before-edge">description: String</text><text x="155.5200653076172" y="180" font-family="Virgil, Segoe UI Emoji" font-size="36px" fill="#000000" text-anchor="middle" style="white-space: pre;" direction="ltr" dominant-baseline="text-before-edge">active: boolean</text></g><g mask="url(#mask-340mQ3x0FOyLYAckhwgnN)" stroke-linecap="round"><g transform="translate(483.477506096875 1352.1506416118518) rotate(0 97.96754635812249 -0.696594720375856)"><path d="M-0.93 1.15 C31.79 0.84, 163.92 -0.6, 196.86 -0.93 M0.79 0.71 C33.31 -0.01, 163.46 -1.99, 195.99 -2.54" stroke="#000000" stroke-width="1" fill="none"></path></g><g transform="translate(483.477506096875 1352.1506416118518) rotate(0 97.96754635812249 -0.696594720375856)"><path d="M29.07 -9.18 C19.14 -5.99, 9.61 -0.53, -1.03 2.41 M26.34 -8.98 C19.27 -6.42, 12.7 -3.94, -1.83 2.03" stroke="#000000" stroke-width="1" fill="none"></path></g><g transform="translate(483.477506096875 1352.1506416118518) rotate(0 97.96754635812249 -0.696594720375856)"><path d="M29.29 11.35 C19.12 7.43, 9.52 5.79, -1.03 2.41 M26.56 11.54 C19.35 8.48, 12.73 5.33, -1.83 2.03" stroke="#000000" stroke-width="1" fill="none"></path></g><g transform="translate(483.477506096875 1352.1506416118518) rotate(0 97.96754635812249 -0.696594720375856)"><path d="M169.88 8.4 C179.18 4.66, 189.05 2.76, 195.88 -1.29 M167.15 8.6 C175.37 5.88, 184.18 2.52, 195.08 -1.67" stroke="#000000" stroke-width="1" fill="none"></path></g><g transform="translate(483.477506096875 1352.1506416118518) rotate(0 97.96754635812249 -0.696594720375856)"><path d="M169.55 -12.12 C179.13 -8.76, 189.11 -3.56, 195.88 -1.29 M166.82 -11.92 C175.2 -9.02, 184.1 -6.75, 195.08 -1.67" stroke="#000000" stroke-width="1" fill="none"></path></g></g><mask id="mask-340mQ3x0FOyLYAckhwgnN"><rect x="0" y="0" fill="#fff" width="780.2002079678496" height="1454.0473137705126"></rect><rect x="557.6828435435928" y="1328.7023055325217" fill="#000" width="48.31202697753906" height="45" opacity="1"></rect></mask><g transform="translate(557.6828435435928 1328.7023055325217) rotate(0 23.76220891140474 22.751741358954405)"><text x="24.15601348876953" y="0" font-family="Virgil, Segoe UI Emoji" font-size="36px" fill="#000000" text-anchor="middle" style="white-space: pre;" direction="ltr" dominant-baseline="text-before-edge">n:m</text></g><g stroke-linecap="round" transform="translate(1306.4010868465703 1230.1349951495527) rotate(0 228 117.5)"><path d="M32 0 M32 0 C143.01 2.6, 253.67 2.25, 424 0 M32 0 C120.65 -2.49, 208.63 -2.32, 424 0 M424 0 C443.83 -1.76, 455.59 12.37, 456 32 M424 0 C445.77 -0.35, 455.9 8.39, 456 32 M456 32 C457.2 85.74, 456.94 140.69, 456 203 M456 32 C456.14 69.3, 456.89 108.14, 456 203 M456 203 C455.61 224.13, 445.63 236.5, 424 235 M456 203 C458.07 222.06, 443.7 236.17, 424 235 M424 235 C343.33 236.41, 264.51 236.31, 32 235 M424 235 C276.21 233.99, 127.4 234.57, 32 235 M32 235 C10.39 235.84, 0.97 224.99, 0 203 M32 235 C8.97 235.34, 1.84 223.1, 0 203 M0 203 C0.98 147.83, -1.51 92.89, 0 32 M0 203 C-1.95 160.6, -2.24 116.04, 0 32 M0 32 C-0.32 11.57, 11.65 1.22, 32 0 M0 32 C-1.24 10.22, 9.27 -1.77, 32 0" stroke="#000000" stroke-width="1" fill="none"></path></g><g transform="translate(1356.7770328914921 1235.1349951495527) rotate(0 177.62405395507812 112.5)"><text x="177.62405395507812" y="0" font-family="Virgil, Segoe UI Emoji" font-size="36px" fill="#000000" text-anchor="middle" style="white-space: pre;" direction="ltr" dominant-baseline="text-before-edge">Requisitos</text><text x="177.62405395507812" y="45" font-family="Virgil, Segoe UI Emoji" font-size="36px" fill="#000000" text-anchor="middle" style="white-space: pre;" direction="ltr" dominant-baseline="text-before-edge">id: Long</text><text x="177.62405395507812" y="90" font-family="Virgil, Segoe UI Emoji" font-size="36px" fill="#000000" text-anchor="middle" style="white-space: pre;" direction="ltr" dominant-baseline="text-before-edge">title: String</text><text x="177.62405395507812" y="135" font-family="Virgil, Segoe UI Emoji" font-size="36px" fill="#000000" text-anchor="middle" style="white-space: pre;" direction="ltr" dominant-baseline="text-before-edge">temario: Temario</text><text x="177.62405395507812" y="180" font-family="Virgil, Segoe UI Emoji" font-size="36px" fill="#000000" text-anchor="middle" style="white-space: pre;" direction="ltr" dominant-baseline="text-before-edge">type: TiposRequisito</text></g><g mask="url(#mask-GOURPSOIKsu_8JxTmDbhh)" stroke-linecap="round"><g transform="translate(1293.2022932188556 1343.7290859250668) rotate(0 -105.60231354821735 -0.8600873105718847)"><path d="M-0.82 -0.62 C-36.14 -0.85, -176.21 -1.41, -210.96 -1.42 M0.95 1.66 C-34.66 1.06, -177.09 -2.69, -212.16 -3.38" stroke="#000000" stroke-width="1" fill="none"></path></g><g transform="translate(1293.2022932188556 1343.7290859250668) rotate(0 -105.60231354821735 -0.8600873105718847)"><path d="M-30.09 8.72 C-17.7 7.79, -5.62 2.89, 0.28 -1.74 M-29.71 10.32 C-20.65 6.04, -12.7 4.26, 0.18 -1.33" stroke="#000000" stroke-width="1" fill="none"></path></g><g transform="translate(1293.2022932188556 1343.7290859250668) rotate(0 -105.60231354821735 -0.8600873105718847)"><path d="M-30 -11.8 C-17.66 -4.86, -5.62 -1.89, 0.28 -1.74 M-29.62 -10.2 C-20.77 -8.4, -12.84 -4.1, 0.18 -1.33" stroke="#000000" stroke-width="1" fill="none"></path></g></g><mask id="mask-GOURPSOIKsu_8JxTmDbhh"><rect x="0" y="0" fill="#fff" width="1603.6892660865597" height="1445.461985424328"></rect><rect x="1170.3187997659625" y="1320.3626361754361" fill="#000" width="35.28001403808594" height="45" opacity="1"></rect></mask><g transform="translate(1170.3187997659625 1320.3626361754361) rotate(0 17.28117990467581 22.506362439058762)"><text x="17.64000701904297" y="0" font-family="Virgil, Segoe UI Emoji" font-size="36px" fill="#000000" text-anchor="middle" style="white-space: pre;" direction="ltr" dominant-baseline="text-before-edge">1:n</text></g><g stroke-linecap="round" transform="translate(1296.8229480494483 817.0458691427446) rotate(0 228 95)"><path d="M32 0 M32 0 C161.44 -0.76, 290.31 -1.96, 424 0 M32 0 C133.53 2.5, 235.97 2.25, 424 0 M424 0 C443.72 0.47, 454.39 12.49, 456 32 M424 0 C445.61 -1.67, 456.58 12.25, 456 32 M456 32 C455.89 72.31, 458.48 109.78, 456 158 M456 32 C455.84 66.45, 456.38 99.96, 456 158 M456 158 C456.89 181.21, 445.25 191.01, 424 190 M456 158 C456.29 178.58, 444.05 189.36, 424 190 M424 190 C302.13 189.55, 178.8 189.33, 32 190 M424 190 C284.22 188.43, 143.64 188.23, 32 190 M32 190 C11.36 188.67, 0.43 178.61, 0 158 M32 190 C10.49 191.66, -0.02 178.02, 0 158 M0 158 C-1.23 130.95, -0.24 101.82, 0 32 M0 158 C-0.71 125.41, 0.07 94.15, 0 32 M0 32 C-0.46 11.42, 8.9 -1.54, 32 0 M0 32 C0.46 11.87, 11.67 -1.57, 32 0" stroke="#000000" stroke-width="1" fill="none"></path></g><g transform="translate(1369.3028827418311 822.0458691427446) rotate(0 155.5200653076172 90)"><text x="155.5200653076172" y="0" font-family="Virgil, Segoe UI Emoji" font-size="36px" fill="#000000" text-anchor="middle" style="white-space: pre;" direction="ltr" dominant-baseline="text-before-edge">TiposRequisito</text><text x="155.5200653076172" y="45" font-family="Virgil, Segoe UI Emoji" font-size="36px" fill="#000000" text-anchor="middle" style="white-space: pre;" direction="ltr" dominant-baseline="text-before-edge">id: Long</text><text x="155.5200653076172" y="90" font-family="Virgil, Segoe UI Emoji" font-size="36px" fill="#000000" text-anchor="middle" style="white-space: pre;" direction="ltr" dominant-baseline="text-before-edge">name: String</text><text x="155.5200653076172" y="135" font-family="Virgil, Segoe UI Emoji" font-size="36px" fill="#000000" text-anchor="middle" style="white-space: pre;" direction="ltr" dominant-baseline="text-before-edge">description: String</text></g><g mask="url(#mask-r7HPRbecUSsoHXwDHWnbr)" stroke-linecap="round"><g transform="translate(1526.8958161051596 1027.3498061444911) rotate(0 1.504819772337214 92.7376063024347)"><path d="M0.48 -0.18 C1.18 30.72, 3.06 154.85, 3.73 185.87 M-0.72 -1.33 C-0.13 29.64, 2.03 155.47, 2.85 186.8" stroke="#000000" stroke-width="1" fill="none"></path></g><g transform="translate(1526.8958161051596 1027.3498061444911) rotate(0 1.504819772337214 92.7376063024347)"><path d="M-8.31 159.03 C-7 167.54, -4.09 174.61, 3.38 187.3 M-8.28 159.45 C-3.83 169.54, -0.83 179.51, 2.53 187.45" stroke="#000000" stroke-width="1" fill="none"></path></g><g transform="translate(1526.8958161051596 1027.3498061444911) rotate(0 1.504819772337214 92.7376063024347)"><path d="M12.21 158.59 C8.18 167.31, 5.75 174.49, 3.38 187.3 M12.23 159.02 C9.19 169.2, 4.69 179.33, 2.53 187.45" stroke="#000000" stroke-width="1" fill="none"></path></g></g><mask id="mask-r7HPRbecUSsoHXwDHWnbr"><rect x="0" y="0" fill="#fff" width="1630.514113548681" height="1314.381419171777"></rect><rect x="1511.0649578078774" y="1098.365612658134" fill="#000" width="35.28001403808594" height="45" opacity="1"></rect></mask><g transform="translate(1511.0649578078774 1098.365612658134) rotate(0 17.335678069619462 21.72179978879177)"><text x="17.64000701904297" y="0" font-family="Virgil, Segoe UI Emoji" font-size="36px" fill="#000000" text-anchor="middle" style="white-space: pre;" direction="ltr" dominant-baseline="text-before-edge">1:n</text></g><g transform="translate(1008.6547057965545 794.0424902495631) rotate(0 131.2920379638672 135)"><text x="0" y="0" font-family="Virgil, Segoe UI Emoji" font-size="36px" fill="#000000" text-anchor="start" style="white-space: pre;" direction="ltr" dominant-baseline="text-before-edge">TiposRequisito:</text><text x="0" y="45" font-family="Virgil, Segoe UI Emoji" font-size="36px" fill="#000000" text-anchor="start" style="white-space: pre;" direction="ltr" dominant-baseline="text-before-edge">- Objetivos</text><text x="0" y="90" font-family="Virgil, Segoe UI Emoji" font-size="36px" fill="#000000" text-anchor="start" style="white-space: pre;" direction="ltr" dominant-baseline="text-before-edge">- Alumnos</text><text x="0" y="135" font-family="Virgil, Segoe UI Emoji" font-size="36px" fill="#000000" text-anchor="start" style="white-space: pre;" direction="ltr" dominant-baseline="text-before-edge">- Aula</text><text x="0" y="180" font-family="Virgil, Segoe UI Emoji" font-size="36px" fill="#000000" text-anchor="start" style="white-space: pre;" direction="ltr" dominant-baseline="text-before-edge">- Ordenadores</text><text x="0" y="225" font-family="Virgil, Segoe UI Emoji" font-size="36px" fill="#000000" text-anchor="start" style="white-space: pre;" direction="ltr" dominant-baseline="text-before-edge"></text></g><g stroke-linecap="round" transform="translate(700.1868937614818 1691.0213663664438) rotate(0 189.5 162.5)"><path d="M32 0 M32 0 C142.1 1.28, 253.43 0.33, 347 0 M32 0 C134.81 0.12, 237.4 0.57, 347 0 M347 0 C366.64 1.94, 379.51 11.69, 379 32 M347 0 C370.35 -1.41, 379.96 8.97, 379 32 M379 32 C380.02 119.92, 380.47 208.95, 379 293 M379 32 C378.65 89.08, 378.39 146.03, 379 293 M379 293 C379.11 314.99, 367.74 323.07, 347 325 M379 293 C380.96 314.06, 366.21 324.94, 347 325 M347 325 C233.67 327.98, 117.6 325.94, 32 325 M347 325 C255.05 325.98, 162.08 326.85, 32 325 M32 325 C9.91 324.97, 1.41 315.75, 0 293 M32 325 C9.21 323.82, 0.48 313.22, 0 293 M0 293 C1.05 213.21, 0.69 136.79, 0 32 M0 293 C-1.93 212.37, -1.78 130.89, 0 32 M0 32 C0.55 11.4, 11.01 -1.59, 32 0 M0 32 C0.26 9.13, 9.64 -0.69, 32 0" stroke="#000000" stroke-width="1" fill="none"></path></g><g transform="translate(739.7828410271068 1696.0213663664438) rotate(0 149.904052734375 157.5)"><text x="149.904052734375" y="0" font-family="Virgil, Segoe UI Emoji" font-size="36px" fill="#000000" text-anchor="middle" style="white-space: pre;" direction="ltr" dominant-baseline="text-before-edge">UnidadDidactica</text><text x="149.904052734375" y="45" font-family="Virgil, Segoe UI Emoji" font-size="36px" fill="#000000" text-anchor="middle" style="white-space: pre;" direction="ltr" dominant-baseline="text-before-edge">id: Long</text><text x="149.904052734375" y="90" font-family="Virgil, Segoe UI Emoji" font-size="36px" fill="#000000" text-anchor="middle" style="white-space: pre;" direction="ltr" dominant-baseline="text-before-edge">title: String</text><text x="149.904052734375" y="135" font-family="Virgil, Segoe UI Emoji" font-size="36px" fill="#000000" text-anchor="middle" style="white-space: pre;" direction="ltr" dominant-baseline="text-before-edge">description: Text</text><text x="149.904052734375" y="180" font-family="Virgil, Segoe UI Emoji" font-size="36px" fill="#000000" text-anchor="middle" style="white-space: pre;" direction="ltr" dominant-baseline="text-before-edge">duration: Float</text><text x="149.904052734375" y="225" font-family="Virgil, Segoe UI Emoji" font-size="36px" fill="#000000" text-anchor="middle" style="white-space: pre;" direction="ltr" dominant-baseline="text-before-edge">order: number</text><text x="149.904052734375" y="270" font-family="Virgil, Segoe UI Emoji" font-size="36px" fill="#000000" text-anchor="middle" style="white-space: pre;" direction="ltr" dominant-baseline="text-before-edge">temario: Temario</text></g><g mask="url(#mask-ep2dNPEPNEtk3qV28Q3G-)" stroke-linecap="round"><g transform="translate(886.2954769183452 1482.3956416715503) rotate(0 1.399915803438489 93.02399502699048)"><path d="M-0.24 -0.82 C0.33 30.16, 4.03 154.3, 4.63 185.59 M-1.83 1.36 C-1.44 32.53, 3.43 156.27, 4.12 186.87" stroke="#000000" stroke-width="1" fill="none"></path></g><g transform="translate(886.2954769183452 1482.3956416715503) rotate(0 1.399915803438489 93.02399502699048)"><path d="M-8.41 160.41 C-3.47 169.36, 3.13 182.31, 6.09 185.76 M-7.63 159.56 C-4.6 166.32, -0.63 175.58, 5.08 186.84" stroke="#000000" stroke-width="1" fill="none"></path></g><g transform="translate(886.2954769183452 1482.3956416715503) rotate(0 1.399915803438489 93.02399502699048)"><path d="M12.1 159.76 C8.87 168.92, 7.29 182.14, 6.09 185.76 M12.88 158.91 C9.92 165.74, 7.89 175.19, 5.08 186.84" stroke="#000000" stroke-width="1" fill="none"></path></g></g><mask id="mask-ep2dNPEPNEtk3qV28Q3G-"><rect x="0" y="0" fill="#fff" width="990.0874015476329" height="1768.4630804651754"></rect><rect x="870.5514322139461" y="1552.9293610683628" fill="#000" width="35.28001403808594" height="45" opacity="1"></rect></mask><g transform="translate(870.5514322139461 1552.9293610683628) rotate(0 17.14396050783762 22.49027563017792)"><text x="17.64000701904297" y="0" font-family="Virgil, Segoe UI Emoji" font-size="36px" fill="#000000" text-anchor="middle" style="white-space: pre;" direction="ltr" dominant-baseline="text-before-edge">1:n</text></g><g stroke-linecap="round" transform="translate(1383.3097557572328 1564.690561176925) rotate(0 189.5 252.5)"><path d="M32 0 M32 0 C118.26 2.6, 207.57 2.78, 347 0 M32 0 C131.5 -0.63, 231.52 0.24, 347 0 M347 0 C369.31 1.35, 380.08 12.36, 379 32 M347 0 C368.84 -1.49, 378.78 9.51, 379 32 M379 32 C379.75 203.17, 380.62 372.84, 379 473 M379 32 C377.15 150.6, 377.03 268.48, 379 473 M379 473 C380.04 494.81, 367.92 503.88, 347 505 M379 473 C380.53 495.85, 368.2 505.93, 347 505 M347 505 C257.36 506.42, 169.18 506.69, 32 505 M347 505 C270.37 507.29, 192.31 507.27, 32 505 M32 505 C9.53 504.8, 0.94 496.22, 0 473 M32 505 C10.52 505.11, -0.23 493.34, 0 473 M0 473 C-2.07 368.61, -1.93 263.49, 0 32 M0 473 C1.9 321.53, 1.85 170.33, 0 32 M0 32 C-1.6 11.47, 9.27 -1.81, 32 0 M0 32 C-0.49 11.75, 10.28 0.87, 32 0" stroke="#000000" stroke-width="1" fill="none"></path></g><g transform="translate(1422.9057030228578 1569.690561176925) rotate(0 149.904052734375 247.5)"><text x="149.904052734375" y="0" font-family="Virgil, Segoe UI Emoji" font-size="36px" fill="#000000" text-anchor="middle" style="white-space: pre;" direction="ltr" dominant-baseline="text-before-edge">Actividad </text><text x="149.904052734375" y="45" font-family="Virgil, Segoe UI Emoji" font-size="36px" fill="#000000" text-anchor="middle" style="white-space: pre;" direction="ltr" dominant-baseline="text-before-edge">(PuntoUnidad)</text><text x="149.904052734375" y="90" font-family="Virgil, Segoe UI Emoji" font-size="36px" fill="#000000" text-anchor="middle" style="white-space: pre;" direction="ltr" dominant-baseline="text-before-edge">id: Long</text><text x="149.904052734375" y="135" font-family="Virgil, Segoe UI Emoji" font-size="36px" fill="#000000" text-anchor="middle" style="white-space: pre;" direction="ltr" dominant-baseline="text-before-edge">title: String</text><text x="149.904052734375" y="180" font-family="Virgil, Segoe UI Emoji" font-size="36px" fill="#000000" text-anchor="middle" style="white-space: pre;" direction="ltr" dominant-baseline="text-before-edge">description: Text</text><text x="149.904052734375" y="225" font-family="Virgil, Segoe UI Emoji" font-size="36px" fill="#000000" text-anchor="middle" style="white-space: pre;" direction="ltr" dominant-baseline="text-before-edge">duration: Float</text><text x="149.904052734375" y="270" font-family="Virgil, Segoe UI Emoji" font-size="36px" fill="#000000" text-anchor="middle" style="white-space: pre;" direction="ltr" dominant-baseline="text-before-edge">order: number</text><text x="149.904052734375" y="315" font-family="Virgil, Segoe UI Emoji" font-size="36px" fill="#000000" text-anchor="middle" style="white-space: pre;" direction="ltr" dominant-baseline="text-before-edge">unidad: </text><text x="149.904052734375" y="360" font-family="Virgil, Segoe UI Emoji" font-size="36px" fill="#000000" text-anchor="middle" style="white-space: pre;" direction="ltr" dominant-baseline="text-before-edge">UnidadDidactiva</text><text x="149.904052734375" y="405" font-family="Virgil, Segoe UI Emoji" font-size="36px" fill="#000000" text-anchor="middle" style="white-space: pre;" direction="ltr" dominant-baseline="text-before-edge">tipoActividad: </text><text x="149.904052734375" y="450" font-family="Virgil, Segoe UI Emoji" font-size="36px" fill="#000000" text-anchor="middle" style="white-space: pre;" direction="ltr" dominant-baseline="text-before-edge">TipoActividad</text></g><g mask="url(#mask-GsbmYXCOjJvOgKruQSzrP)" stroke-linecap="round"><g transform="translate(1103.3268288110776 1855.668451608151) rotate(0 129.65394765966812 -1.266579296464161)"><path d="M0.18 -0.02 C43.35 -0.26, 215.3 -2.11, 258.38 -2.51 M-1.18 -1.08 C42.39 -1.02, 216.77 -0.97, 260.49 -0.97" stroke="#000000" stroke-width="1" fill="none"></path></g><g transform="translate(1103.3268288110776 1855.668451608151) rotate(0 129.65394765966812 -1.266579296464161)"><path d="M232.26 7.36 C239.44 5.24, 246.6 2.63, 261.67 -0.55 M233.12 9.43 C238.96 7.08, 246.24 4.45, 260.14 -0.04" stroke="#000000" stroke-width="1" fill="none"></path></g><g transform="translate(1103.3268288110776 1855.668451608151) rotate(0 129.65394765966812 -1.266579296464161)"><path d="M232.26 -13.16 C239.26 -10.15, 246.42 -7.63, 261.67 -0.55 M233.12 -11.09 C239.13 -8.24, 246.41 -5.66, 260.14 -0.04" stroke="#000000" stroke-width="1" fill="none"></path></g></g><mask id="mask-GsbmYXCOjJvOgKruQSzrP"><rect x="0" y="0" fill="#fff" width="1462.8578585586001" height="1958.1794433953648"></rect><rect x="1215.4523366657959" y="1831.9129557145438" fill="#000" width="35.28001403808594" height="45" opacity="1"></rect></mask><g transform="translate(1215.4523366657959 1831.9129557145438) rotate(0 17.528439804949812 22.488916597142815)"><text x="17.64000701904297" y="0" font-family="Virgil, Segoe UI Emoji" font-size="36px" fill="#000000" text-anchor="middle" style="white-space: pre;" direction="ltr" dominant-baseline="text-before-edge">1:n</text></g><g stroke-linecap="round" transform="translate(2001.4555447099156 1695.138452063129) rotate(0 228 95)"><path d="M32 0 M32 0 C135.22 1.94, 241.06 2.15, 424 0 M32 0 C164.25 1.63, 297.31 2.05, 424 0 M424 0 C445.54 -1.11, 458 12, 456 32 M424 0 C443.2 -2.29, 455.52 9.81, 456 32 M456 32 C457.32 76.5, 455.55 122.76, 456 158 M456 32 C457.37 65.34, 457.67 101.26, 456 158 M456 158 C455.64 178.83, 446.47 191.44, 424 190 M456 158 C456.77 181.53, 443.92 190.99, 424 190 M424 190 C285.4 188.92, 147.48 189.66, 32 190 M424 190 C321.7 188.25, 218.86 187.92, 32 190 M32 190 C10.22 191.98, 0.1 181.03, 0 158 M32 190 C11.03 190.78, 0.01 181.42, 0 158 M0 158 C-0.25 127.06, 0.77 93.21, 0 32 M0 158 C-0.07 131.28, -1.56 103.72, 0 32 M0 32 C-1.68 11.71, 12.18 0.03, 32 0 M0 32 C0.57 10.57, 8.45 2.13, 32 0" stroke="#000000" stroke-width="1" fill="none"></path></g><g transform="translate(2073.9354794022984 1700.138452063129) rotate(0 155.5200653076172 90)"><text x="155.5200653076172" y="0" font-family="Virgil, Segoe UI Emoji" font-size="36px" fill="#000000" text-anchor="middle" style="white-space: pre;" direction="ltr" dominant-baseline="text-before-edge">TipoActividad</text><text x="155.5200653076172" y="45" font-family="Virgil, Segoe UI Emoji" font-size="36px" fill="#000000" text-anchor="middle" style="white-space: pre;" direction="ltr" dominant-baseline="text-before-edge">id: Long</text><text x="155.5200653076172" y="90" font-family="Virgil, Segoe UI Emoji" font-size="36px" fill="#000000" text-anchor="middle" style="white-space: pre;" direction="ltr" dominant-baseline="text-before-edge">name: String</text><text x="155.5200653076172" y="135" font-family="Virgil, Segoe UI Emoji" font-size="36px" fill="#000000" text-anchor="middle" style="white-space: pre;" direction="ltr" dominant-baseline="text-before-edge">description: String</text></g><g mask="url(#mask-j72C7ZS39RncijW-YRkMm)" stroke-linecap="round"><g transform="translate(1986.6037712442958 1792.5727274013993) rotate(0 -103.61054810809947 3.1379305141288256)"><path d="M0.19 -0.66 C-34.41 0.33, -173.19 5.86, -207.41 6.93 M-1.17 1.61 C-35.43 2.75, -171.26 4.21, -205.29 5.07" stroke="#000000" stroke-width="1" fill="none"></path></g><g transform="translate(1986.6037712442958 1792.5727274013993) rotate(0 -103.61054810809947 3.1379305141288256)"><path d="M-178.38 -7.53 C-185.24 -0.32, -195.99 1.98, -204.82 6.07 M-177.5 -5.98 C-187.01 -1.54, -197.69 1.84, -205.46 5.21" stroke="#000000" stroke-width="1" fill="none"></path></g><g transform="translate(1986.6037712442958 1792.5727274013993) rotate(0 -103.61054810809947 3.1379305141288256)"><path d="M-178.02 12.99 C-185.17 13.68, -196.04 9.48, -204.82 6.07 M-177.14 14.54 C-186.73 11.4, -197.53 7.21, -205.46 5.21" stroke="#000000" stroke-width="1" fill="none"></path></g></g><mask id="mask-j72C7ZS39RncijW-YRkMm"><rect x="0" y="0" fill="#fff" width="2292.903018800531" height="1899.005253475425"></rect><rect x="1865.8141404471353" y="1773.2889904384124" fill="#000" width="35.28001403808594" height="45" opacity="1"></rect></mask><g transform="translate(1865.8141404471353 1773.2889904384124) rotate(0 17.179082689061033 22.42166747711599)"><text x="17.64000701904297" y="0" font-family="Virgil, Segoe UI Emoji" font-size="36px" fill="#000000" text-anchor="middle" style="white-space: pre;" direction="ltr" dominant-baseline="text-before-edge">1:n</text></g><g stroke-linecap="round" transform="translate(27.420652917251573 10) rotate(0 975.9956081250093 340.25040304156937)"><path d="M32 0 M32 0 C720.03 3.66, 1406.6 4.19, 1919.99 0 M32 0 C415.94 -5.51, 800.6 -6.03, 1919.99 0 M1919.99 0 C1942.96 -0.93, 1952.61 10.38, 1951.99 32 M1919.99 0 C1940.48 -0.69, 1950.71 8.85, 1951.99 32 M1951.99 32 C1952.16 252.94, 1952.24 474.14, 1951.99 648.5 M1951.99 32 C1951.96 249.8, 1951.59 467.56, 1951.99 648.5 M1951.99 648.5 C1951.87 667.99, 1942.15 679, 1919.99 680.5 M1951.99 648.5 C1951.69 670.99, 1940.9 682.14, 1919.99 680.5 M1919.99 680.5 C1259.88 676.01, 599.34 676.45, 32 680.5 M1919.99 680.5 C1207.54 685.17, 495.3 685.18, 32 680.5 M32 680.5 C10.85 682.1, -1.86 667.87, 0 648.5 M32 680.5 C10.31 681.41, -0.86 668.07, 0 648.5 M0 648.5 C-1.6 469.86, -0.68 292.39, 0 32 M0 648.5 C0.39 474, 1.05 298.8, 0 32 M0 32 C1.32 12.32, 9.38 0.64, 32 0 M0 32 C1.38 10.27, 8.71 -0.66, 32 0" stroke="#000000" stroke-width="1" fill="none"></path></g><g transform="translate(929.0762418161867 15) rotate(0 74.34001922607422 22.5)"><text x="74.34001922607422" y="0" font-family="Virgil, Segoe UI Emoji" font-size="36px" fill="#000000" text-anchor="middle" style="white-space: pre;" direction="ltr" dominant-baseline="text-before-edge">Permisos</text></g><g stroke-linecap="round" transform="translate(10 729.0969797187497) rotate(0 1307.0792562817205 723.0995262424887)"><path d="M32 0 M32 0 C757.91 -6.71, 1483.5 -5.8, 2582.16 0 M32 0 C769.81 -9.04, 1508.15 -9.54, 2582.16 0 M2582.16 0 C2605.48 -1.92, 2614.6 12.2, 2614.16 32 M2582.16 0 C2603.15 0.76, 2612.27 8.51, 2614.16 32 M2614.16 32 C2618.07 459.07, 2616.85 886.87, 2614.16 1414.2 M2614.16 32 C2608.86 480.51, 2608.73 928.17, 2614.16 1414.2 M2614.16 1414.2 C2613.18 1437.35, 2603.01 1445.93, 2582.16 1446.2 M2614.16 1414.2 C2616.4 1435.98, 2603.15 1445, 2582.16 1446.2 M2582.16 1446.2 C1648.85 1436.84, 715.58 1437.18, 32 1446.2 M2582.16 1446.2 C1585.67 1448.34, 588.83 1448.58, 32 1446.2 M32 1446.2 C10.56 1444.37, 1.24 1437.04, 0 1414.2 M32 1446.2 C11.98 1446.51, -0.98 1435.25, 0 1414.2 M0 1414.2 C5.92 871.94, 5.55 329.01, 0 32 M0 1414.2 C-0.83 1086.83, -0.53 759.49, 0 32 M0 32 C-0.43 11.54, 10.13 0.75, 32 0 M0 32 C0.61 9.33, 12.66 -1.97, 32 0" stroke="#000000" stroke-width="1" fill="none"></path></g><g transform="translate(1237.9332296703942 734.0969797187497) rotate(0 79.14602661132812 22.5)"><text x="79.14602661132812" y="0" font-family="Virgil, Segoe UI Emoji" font-size="36px" fill="#000000" text-anchor="middle" style="white-space: pre;" direction="ltr" dominant-baseline="text-before-edge">Temarios</text></g></svg>